<?xml version="1.0" encoding="UTF-8" standalone="no"?>
<svg
   xmlns:dc="http://purl.org/dc/elements/1.1/"
   xmlns:cc="http://creativecommons.org/ns#"
   xmlns:rdf="http://www.w3.org/1999/02/22-rdf-syntax-ns#"
   xmlns:svg="http://www.w3.org/2000/svg"
   xmlns="http://www.w3.org/2000/svg"
   xmlns:sodipodi="http://sodipodi.sourceforge.net/DTD/sodipodi-0.dtd"
   xmlns:inkscape="http://www.inkscape.org/namespaces/inkscape"
   width="2426.4873"
   height="691.50897"
   viewBox="0 0 187.08799 53.317001"
   version="1.1"
   id="svg10"
   sodipodi:docname="akai.svg"
   inkscape:version="1.0.1 (3bc2e813f5, 2020-09-07)">
  <metadata
     id="metadata16">
    <rdf:RDF>
      <cc:Work
         rdf:about="">
        <dc:format>image/svg+xml</dc:format>
        <dc:type
           rdf:resource="http://purl.org/dc/dcmitype/StillImage" />
        <dc:title></dc:title>
      </cc:Work>
    </rdf:RDF>
  </metadata>
  <defs
     id="defs14" />
  <sodipodi:namedview
     pagecolor="#ffffff"
     bordercolor="#666666"
     borderopacity="1"
     objecttolerance="10"
     gridtolerance="10"
     guidetolerance="10"
     inkscape:pageopacity="0"
     inkscape:pageshadow="2"
     inkscape:window-width="1680"
     inkscape:window-height="987"
     id="namedview12"
     showgrid="false"
     inkscape:zoom="0.147"
     inkscape:cx="780.70643"
     inkscape:cy="-447.95017"
     inkscape:window-x="-8"
     inkscape:window-y="-8"
     inkscape:window-maximized="1"
     inkscape:current-layer="svg10"
     fit-margin-top="0"
     fit-margin-left="0"
     fit-margin-right="0"
     fit-margin-bottom="0"
     inkscape:document-rotation="0" />
  <path
     id="path6"
     d="m 133.928,34.664 -3.772,-10.461 -4.47,10.461 z m -106.335,0 L 23.838,24.203 19.35,34.664 Z M 161.154,9.761 V 3.806 h 25.934 v 5.955 l -1.781,0.175 c -3.248,0.35 -3.756,2.043 -3.756,5.064 v 27.121 c 0,3.039 0.508,4.732 3.756,5.064 l 1.781,0.191 v 5.939 h -25.934 v -5.939 l 1.799,-0.191 c 3.23,-0.332 3.736,-2.043 3.736,-5.064 V 15 c 0,-3.021 -0.506,-4.715 -3.736,-5.064 z M 54.871,53.316 v -5.939 c 2.689,-0.051 4.61,-0.732 4.61,-3.789 V 12.817 c 0,-2.934 -2.305,-3.003 -4.61,-3.056 V 3.806 h 23.191 v 5.955 c -2.899,0.053 -3.719,1.223 -3.719,4.069 v 8.295 L 84.698,11.717 c 0.279,-0.297 0.489,-0.629 0.489,-1.048 0,-0.646 -0.646,-0.908 -1.205,-0.908 H 81.869 V 3.806 h 21.621 v 5.955 h -2.621 c -2.078,0 -4.453,0.053 -6.006,1.677 l -10.88,11.474 13.238,20.676 c 2.025,3.162 3.545,3.301 7.02,3.789 v 5.939 h -24.78 v -5.939 c 0.96,-0.086 2.288,-0.277 2.218,-1.535 -0.035,-0.543 -0.297,-1.031 -0.577,-1.484 L 74.344,33.915 v 9.674 c 0,3.127 0.891,3.424 3.719,3.789 v 5.939 H 54.871 Z m 51.465,0 v -5.939 h 1.955 c 3.738,0 5.396,-1.814 6.777,-5.08 L 126.664,14.547 123.519,5.815 136.164,0 151.043,40.655 c 1.902,5.205 3.107,6.393 8.348,6.723 v 5.939 H 133.51 v -5.939 c 1.484,-0.104 3.824,-0.174 3.947,-2.129 a 3.302,3.302 0 0 0 -0.211,-1.416 l -1.064,-2.934 h -13.15 l -1.24,2.934 c -0.174,0.402 -0.227,0.822 -0.227,1.24 0,1.957 2.584,2.061 3.998,2.305 v 5.939 H 106.336 Z M 0,53.316 v -5.939 h 1.956 c 3.737,0 5.414,-1.814 6.776,-5.08 L 20.328,14.547 17.185,5.815 29.829,0 44.708,40.655 c 1.903,5.205 3.108,6.393 8.348,6.723 v 5.939 H 27.174 v -5.939 c 1.485,-0.104 3.825,-0.174 3.947,-2.129 a 3.569,3.569 0 0 0 -0.192,-1.416 l -1.083,-2.934 h -13.15 l -1.24,2.934 a 3.397,3.397 0 0 0 -0.227,1.24 c 0,1.957 2.584,2.061 4.017,2.305 v 5.939 H 0 Z" />
</svg>
