<?xml version="1.0" encoding="UTF-8" standalone="no"?>
<svg
   xmlns:dc="http://purl.org/dc/elements/1.1/"
   xmlns:cc="http://creativecommons.org/ns#"
   xmlns:rdf="http://www.w3.org/1999/02/22-rdf-syntax-ns#"
   xmlns:svg="http://www.w3.org/2000/svg"
   xmlns="http://www.w3.org/2000/svg"
   xmlns:sodipodi="http://sodipodi.sourceforge.net/DTD/sodipodi-0.dtd"
   xmlns:inkscape="http://www.inkscape.org/namespaces/inkscape"
   width="46.417969mm"
   height="8.2128906mm"
   viewBox="0 0 46.417969 8.2128906"
   version="1.1"
   id="svg8"
   inkscape:version="1.0.1 (3bc2e813f5, 2020-09-07)"
   sodipodi:docname="GX-260D.svg">
  <defs
     id="defs2">
    <rect
       x="23.920624"
       y="87.263504"
       width="48.242149"
       height="30.602362"
       id="rect22" />
    <rect
       x="28.726191"
       y="92.226189"
       width="131.53571"
       height="52.916668"
       id="rect12" />
  </defs>
  <sodipodi:namedview
     id="base"
     pagecolor="#ffffff"
     bordercolor="#666666"
     borderopacity="1.0"
     inkscape:pageopacity="0.0"
     inkscape:pageshadow="2"
     inkscape:zoom="1.979899"
     inkscape:cx="-33.123183"
     inkscape:cy="105.20571"
     inkscape:document-units="mm"
     inkscape:current-layer="layer1"
     inkscape:document-rotation="0"
     showgrid="false"
     fit-margin-top="0"
     fit-margin-left="0"
     fit-margin-right="0"
     fit-margin-bottom="0"
     inkscape:window-width="1680"
     inkscape:window-height="987"
     inkscape:window-x="-8"
     inkscape:window-y="-8"
     inkscape:window-maximized="1" />
  <metadata
     id="metadata5">
    <rdf:RDF>
      <cc:Work
         rdf:about="">
        <dc:format>image/svg+xml</dc:format>
        <dc:type
           rdf:resource="http://purl.org/dc/dcmitype/StillImage" />
        <dc:title></dc:title>
      </cc:Work>
    </rdf:RDF>
  </metadata>
  <g
     inkscape:label="Ebene 1"
     inkscape:groupmode="layer"
     id="layer1"
     transform="translate(-31.990234,-82.302734)">
    <text
       xml:space="preserve"
       id="text10"
       style="font-style:normal;font-variant:normal;font-weight:normal;font-stretch:normal;font-size:10.5833px;line-height:1.25;font-family:'Stymie Extra';-inkscape-font-specification:'Stymie Extra';white-space:pre;shape-inside:url(#rect12);fill:#000000;fill-opacity:1;stroke:none;" />
    <text
       xml:space="preserve"
       style="font-style:normal;font-variant:normal;font-weight:normal;font-stretch:normal;font-size:10.5833px;line-height:1.25;font-family:'Stymie Extra';-inkscape-font-specification:'Stymie Extra';fill:#000000;fill-opacity:1;stroke:none;stroke-width:0.264583"
       x="31.938707"
       y="98.889725"
       id="text18"><tspan
         sodipodi:role="line"
         id="tspan16"
         x="31.938707"
         y="98.889725"
         style="font-style:normal;font-variant:normal;font-weight:normal;font-stretch:normal;font-family:'Stymie Extra';-inkscape-font-specification:'Stymie Extra';stroke-width:0.264583" /></text>
    <text
       xml:space="preserve"
       id="text20"
       style="font-style:normal;font-variant:normal;font-weight:normal;font-stretch:normal;font-size:10.5833px;line-height:1.25;font-family:'Stymie Extra';-inkscape-font-specification:'Stymie Extra';white-space:pre;shape-inside:url(#rect22);fill:#000000;fill-opacity:1;stroke:none;" />
    <g
       aria-label="GX-260D"
       id="text28"
       style="font-size:10.5833px;line-height:1.25;font-family:'Stymie Extra';-inkscape-font-specification:'Stymie Extra';stroke-width:0.264583">
      <g
         id="g45"
         style="opacity:1">
        <path
           style="color:#000000;font-style:normal;font-variant:normal;font-weight:normal;font-stretch:normal;font-size:medium;line-height:1.25;font-family:'Stymie Extra';-inkscape-font-specification:'Stymie Extra';font-variant-ligatures:normal;font-variant-position:normal;font-variant-caps:normal;font-variant-numeric:normal;font-variant-alternates:normal;font-variant-east-asian:normal;font-feature-settings:normal;font-variation-settings:normal;text-indent:0;text-align:start;text-decoration:none;text-decoration-line:none;text-decoration-style:solid;text-decoration-color:#000000;letter-spacing:normal;word-spacing:normal;text-transform:none;writing-mode:lr-tb;direction:ltr;text-orientation:mixed;dominant-baseline:auto;baseline-shift:baseline;text-anchor:start;white-space:normal;shape-padding:0;shape-margin:0;inline-size:0;clip-rule:nonzero;display:inline;overflow:visible;visibility:visible;isolation:auto;mix-blend-mode:normal;color-interpolation:sRGB;color-interpolation-filters:linearRGB;solid-color:#000000;solid-opacity:1;vector-effect:none;fill:#000000;fill-opacity:1;fill-rule:nonzero;stroke:none;stroke-width:0.264583;stroke-linecap:butt;stroke-linejoin:miter;stroke-miterlimit:4;stroke-dasharray:none;stroke-dashoffset:0;stroke-opacity:1;color-rendering:auto;image-rendering:auto;shape-rendering:auto;text-rendering:auto;enable-background:accumulate;stop-color:#000000;stop-opacity:1"
           d="m 35.71031,87.832802 h 0.677332 c 0,0.677331 -0.275166,1.037163 -0.772581,1.037163 -0.719665,0 -0.963081,-0.582082 -0.963081,-1.830911 0,-1.968494 0.179916,-2.889241 1.068914,-2.889241 0.613831,0 0.96308,0.444499 0.96308,1.291163 v 0.116416 h 1.449912 v -2.973907 h -1.354662 v 0.486832 c -0.423332,-0.433916 -0.963081,-0.634998 -1.629829,-0.634998 -1.703911,0 -3.026823,1.619245 -3.026823,4.095737 0,2.317742 1.291162,3.852321 3.164406,3.852321 0.719665,0 1.301746,-0.232833 1.809745,-0.740831 v 0.560915 h 1.354662 V 87.843385 H 38.9488 v -1.545162 h -3.23849 z"
           id="path47" />
        <path
           style="color:#000000;font-style:normal;font-variant:normal;font-weight:normal;font-stretch:normal;font-size:medium;line-height:1.25;font-family:'Stymie Extra';-inkscape-font-specification:'Stymie Extra';font-variant-ligatures:normal;font-variant-position:normal;font-variant-caps:normal;font-variant-numeric:normal;font-variant-alternates:normal;font-variant-east-asian:normal;font-feature-settings:normal;font-variation-settings:normal;text-indent:0;text-align:start;text-decoration:none;text-decoration-line:none;text-decoration-style:solid;text-decoration-color:#000000;letter-spacing:normal;word-spacing:normal;text-transform:none;writing-mode:lr-tb;direction:ltr;text-orientation:mixed;dominant-baseline:auto;baseline-shift:baseline;text-anchor:start;white-space:normal;shape-padding:0;shape-margin:0;inline-size:0;clip-rule:nonzero;display:inline;overflow:visible;visibility:visible;isolation:auto;mix-blend-mode:normal;color-interpolation:sRGB;color-interpolation-filters:linearRGB;solid-color:#000000;solid-opacity:1;vector-effect:none;fill-opacity:1;fill-rule:nonzero;stroke:none;stroke-width:0.264583;stroke-linecap:butt;stroke-linejoin:miter;stroke-miterlimit:4;stroke-dasharray:none;stroke-dashoffset:0;stroke-opacity:1;color-rendering:auto;image-rendering:auto;shape-rendering:auto;text-rendering:auto;enable-background:accumulate;stop-color:#000000;stop-opacity:1"
           d="m 35.148438,82.302734 c -0.893862,0 -1.690904,0.429598 -2.25586,1.171875 -0.564956,0.742278 -0.902344,1.794839 -0.902344,3.056641 0,1.183437 0.329726,2.17715 0.910157,2.878906 0.58043,0.701756 1.413972,1.105469 2.386718,1.105469 0.659889,0 1.190432,-0.278344 1.677735,-0.6875 v 0.507813 h 1.61914 v -2.359376 h 0.498047 v -1.810546 h -3.503906 v 1.798828 h 0.132813 0.511718 c -0.01986,0.231385 -0.05445,0.44564 -0.140625,0.560547 -0.106594,0.142126 -0.249989,0.21289 -0.466797,0.21289 -0.324165,0 -0.499576,-0.108527 -0.632812,-0.375 -0.133236,-0.266472 -0.197266,-0.708399 -0.197266,-1.324219 0,-0.980216 0.04724,-1.696803 0.19336,-2.142578 0.07306,-0.222887 0.168738,-0.374638 0.285156,-0.470703 0.116418,-0.09606 0.257618,-0.144531 0.457031,-0.144531 0.274983,0 0.465879,0.09273 0.605469,0.277344 0.13959,0.184619 0.224609,0.47767 0.224609,0.882812 v 0.248047 h 1.714844 v -3.238281 h -1.619141 v 0.439453 c -0.41981,-0.344011 -0.895664,-0.587891 -1.498046,-0.587891 z m 0,0.265625 c 0.640149,0 1.136808,0.185444 1.535156,0.59375 l 0.228515,0.232422 v -0.679687 h 1.089844 v 2.710937 H 36.8125 c -0.0026,-0.4323 -0.08776,-0.781767 -0.273438,-1.027343 -0.188492,-0.249297 -0.479511,-0.38086 -0.818359,-0.38086 -0.245085,0 -0.459606,0.06699 -0.626953,0.205078 -0.167347,0.138091 -0.284141,0.338436 -0.367188,0.591797 -0.166092,0.506722 -0.207031,1.236332 -0.207031,2.224609 0,0.63301 0.05817,1.106584 0.226563,1.44336 0.168388,0.336776 0.473641,0.519531 0.86914,0.519531 0.280608,0 0.522393,-0.109283 0.677735,-0.316406 0.155342,-0.207123 0.226562,-0.496936 0.226562,-0.853516 v -0.130859 h -0.677734 v -1.271484 h 2.974609 v 1.28125 h -0.498047 v 2.359374 h -1.089843 v -0.748046 l -0.22461,0.226562 c -0.486562,0.486561 -1.025665,0.703125 -1.716797,0.703125 -0.900497,0 -1.650132,-0.364796 -2.183593,-1.009765 -0.533462,-0.64497 -0.84961,-1.576633 -0.84961,-2.710938 0,-1.21469 0.325178,-2.210017 0.847656,-2.896484 0.522479,-0.686468 1.236826,-1.066407 2.046876,-1.066407 z"
           id="path49" />
      </g>
      <g
         id="g51"
         style="opacity:1">
        <path
           style="color:#000000;font-style:normal;font-variant:normal;font-weight:normal;font-stretch:normal;font-size:medium;line-height:1.25;font-family:'Stymie Extra';-inkscape-font-specification:'Stymie Extra';font-variant-ligatures:normal;font-variant-position:normal;font-variant-caps:normal;font-variant-numeric:normal;font-variant-alternates:normal;font-variant-east-asian:normal;font-feature-settings:normal;font-variation-settings:normal;text-indent:0;text-align:start;text-decoration:none;text-decoration-line:none;text-decoration-style:solid;text-decoration-color:#000000;letter-spacing:normal;word-spacing:normal;text-transform:none;writing-mode:lr-tb;direction:ltr;text-orientation:mixed;dominant-baseline:auto;baseline-shift:baseline;text-anchor:start;white-space:normal;shape-padding:0;shape-margin:0;inline-size:0;clip-rule:nonzero;display:inline;overflow:visible;visibility:visible;isolation:auto;mix-blend-mode:normal;color-interpolation:sRGB;color-interpolation-filters:linearRGB;solid-color:#000000;solid-opacity:1;vector-effect:none;fill:#000000;fill-opacity:1;fill-rule:nonzero;stroke:none;stroke-width:0.264583;stroke-linecap:butt;stroke-linejoin:miter;stroke-miterlimit:4;stroke-dasharray:none;stroke-dashoffset:0;stroke-opacity:1;color-rendering:auto;image-rendering:auto;shape-rendering:auto;text-rendering:auto;enable-background:accumulate;stop-color:#000000;stop-opacity:1"
           d="m 42.102617,90.203461 v -1.672162 h -0.560914 l 0.878413,-0.96308 0.761998,0.96308 h -0.539748 v 1.672162 h 3.693571 v -1.672162 h -0.497415 l -1.873244,-2.285992 1.873244,-2.042577 h 0.497415 v -1.619245 h -2.857491 v 1.619245 h 0.550332 L 43.160947,85.155227 42.39895,84.20273 h 0.507998 V 82.583485 H 39.25571 v 1.619245 h 0.497415 l 1.830911,2.328326 -1.830911,2.000243 H 39.25571 v 1.672162 z"
           id="path53" />
        <path
           style="color:#000000;font-style:normal;font-variant:normal;font-weight:normal;font-stretch:normal;font-size:medium;line-height:1.25;font-family:'Stymie Extra';-inkscape-font-specification:'Stymie Extra';font-variant-ligatures:normal;font-variant-position:normal;font-variant-caps:normal;font-variant-numeric:normal;font-variant-alternates:normal;font-variant-east-asian:normal;font-feature-settings:normal;font-variation-settings:normal;text-indent:0;text-align:start;text-decoration:none;text-decoration-line:none;text-decoration-style:solid;text-decoration-color:#000000;letter-spacing:normal;word-spacing:normal;text-transform:none;writing-mode:lr-tb;direction:ltr;text-orientation:mixed;dominant-baseline:auto;baseline-shift:baseline;text-anchor:start;white-space:normal;shape-padding:0;shape-margin:0;inline-size:0;clip-rule:nonzero;display:inline;overflow:visible;visibility:visible;isolation:auto;mix-blend-mode:normal;color-interpolation:sRGB;color-interpolation-filters:linearRGB;solid-color:#000000;solid-opacity:1;vector-effect:none;fill-opacity:1;fill-rule:nonzero;stroke:none;stroke-width:0.264583;stroke-linecap:butt;stroke-linejoin:miter;stroke-miterlimit:4;stroke-dasharray:none;stroke-dashoffset:0;stroke-opacity:1;color-rendering:auto;image-rendering:auto;shape-rendering:auto;text-rendering:auto;enable-background:accumulate;stop-color:#000000;stop-opacity:1"
           d="m 39.123047,82.451172 v 1.884766 h 0.566406 l 1.720703,2.189453 -1.714844,1.873047 h -0.572265 v 1.9375 h 3.111328 v -0.132813 -1.804687 h -0.392578 l 0.572265,-0.625 0.494141,0.625 h -0.398437 v 1.9375 h 3.958984 v -1.9375 H 45.900391 L 44.140625,86.25 45.896484,84.335938 h 0.572266 v -1.884766 h -3.123047 v 1.884766 h 0.382813 l -0.560547,0.615234 -0.492188,-0.615234 h 0.363281 v -1.884766 z m 0.265625,0.263672 h 3.386719 v 1.355468 h -0.652344 l 1.03125,1.289063 1.173828,-1.289063 h -0.716797 v -1.355468 h 2.591797 v 1.355468 H 45.78125 l -1.990234,2.169922 1.984375,2.423828 h 0.427734 v 1.40625 h -3.427734 v -1.40625 h 0.679687 l -1.027344,-1.300781 -1.185546,1.300781 h 0.728515 v 1.40625 h -2.582031 v -1.40625 h 0.421875 l 1.947265,-2.126953 -1.939453,-2.466797 h -0.429687 z"
           id="path55" />
      </g>
      <g
         id="g57"
         style="opacity:1">
        <path
           style="color:#000000;font-style:normal;font-variant:normal;font-weight:normal;font-stretch:normal;font-size:medium;line-height:1.25;font-family:'Stymie Extra';-inkscape-font-specification:'Stymie Extra';font-variant-ligatures:normal;font-variant-position:normal;font-variant-caps:normal;font-variant-numeric:normal;font-variant-alternates:normal;font-variant-east-asian:normal;font-feature-settings:normal;font-variation-settings:normal;text-indent:0;text-align:start;text-decoration:none;text-decoration-line:none;text-decoration-style:solid;text-decoration-color:#000000;letter-spacing:normal;word-spacing:normal;text-transform:none;writing-mode:lr-tb;direction:ltr;text-orientation:mixed;dominant-baseline:auto;baseline-shift:baseline;text-anchor:start;white-space:normal;shape-padding:0;shape-margin:0;inline-size:0;clip-rule:nonzero;display:inline;overflow:visible;visibility:visible;isolation:auto;mix-blend-mode:normal;color-interpolation:sRGB;color-interpolation-filters:linearRGB;solid-color:#000000;solid-opacity:1;vector-effect:none;fill:#000000;fill-opacity:1;fill-rule:nonzero;stroke:none;stroke-width:0.264583;stroke-linecap:butt;stroke-linejoin:miter;stroke-miterlimit:4;stroke-dasharray:none;stroke-dashoffset:0;stroke-opacity:1;color-rendering:auto;image-rendering:auto;shape-rendering:auto;text-rendering:auto;enable-background:accumulate;stop-color:#000000;stop-opacity:1"
           d="m 50.198825,88.637132 v -1.936743 h -3.005658 v 1.936743 z"
           id="path59" />
        <path
           style="color:#000000;font-style:normal;font-variant:normal;font-weight:normal;font-stretch:normal;font-size:medium;line-height:1.25;font-family:'Stymie Extra';-inkscape-font-specification:'Stymie Extra';font-variant-ligatures:normal;font-variant-position:normal;font-variant-caps:normal;font-variant-numeric:normal;font-variant-alternates:normal;font-variant-east-asian:normal;font-feature-settings:normal;font-variation-settings:normal;text-indent:0;text-align:start;text-decoration:none;text-decoration-line:none;text-decoration-style:solid;text-decoration-color:#000000;letter-spacing:normal;word-spacing:normal;text-transform:none;writing-mode:lr-tb;direction:ltr;text-orientation:mixed;dominant-baseline:auto;baseline-shift:baseline;text-anchor:start;white-space:normal;shape-padding:0;shape-margin:0;inline-size:0;clip-rule:nonzero;display:inline;overflow:visible;visibility:visible;isolation:auto;mix-blend-mode:normal;color-interpolation:sRGB;color-interpolation-filters:linearRGB;solid-color:#000000;solid-opacity:1;vector-effect:none;fill-opacity:1;fill-rule:nonzero;stroke:none;stroke-width:0.264583;stroke-linecap:butt;stroke-linejoin:miter;stroke-miterlimit:4;stroke-dasharray:none;stroke-dashoffset:0;stroke-opacity:1;color-rendering:auto;image-rendering:auto;shape-rendering:auto;text-rendering:auto;enable-background:accumulate;stop-color:#000000;stop-opacity:1"
           d="m 47.060547,86.568359 v 2.201172 h 3.271484 v -0.132812 -2.06836 z m 0.265625,0.263672 h 2.740234 v 1.671875 h -2.740234 z"
           id="path61" />
      </g>
      <g
         id="g63"
         style="opacity:1">
        <path
           style="color:#000000;font-style:normal;font-variant:normal;font-weight:normal;font-stretch:normal;font-size:medium;line-height:1.25;font-family:'Stymie Extra';-inkscape-font-specification:'Stymie Extra';font-variant-ligatures:normal;font-variant-position:normal;font-variant-caps:normal;font-variant-numeric:normal;font-variant-alternates:normal;font-variant-east-asian:normal;font-feature-settings:normal;font-variation-settings:normal;text-indent:0;text-align:start;text-decoration:none;text-decoration-line:none;text-decoration-style:solid;text-decoration-color:#000000;letter-spacing:normal;word-spacing:normal;text-transform:none;writing-mode:lr-tb;direction:ltr;text-orientation:mixed;dominant-baseline:auto;baseline-shift:baseline;text-anchor:start;white-space:normal;shape-padding:0;shape-margin:0;inline-size:0;clip-rule:nonzero;display:inline;overflow:visible;visibility:visible;isolation:auto;mix-blend-mode:normal;color-interpolation:sRGB;color-interpolation-filters:linearRGB;solid-color:#000000;solid-opacity:1;vector-effect:none;fill:#000000;fill-opacity:1;fill-rule:nonzero;stroke:none;stroke-width:0.264583;stroke-linecap:butt;stroke-linejoin:miter;stroke-miterlimit:4;stroke-dasharray:none;stroke-dashoffset:0;stroke-opacity:1;color-rendering:auto;image-rendering:auto;shape-rendering:auto;text-rendering:auto;enable-background:accumulate;stop-color:#000000;stop-opacity:1"
           d="M 56.972116,90.203461 V 87.589386 H 55.57512 v 1.02658 h -2.106076 c 0.603248,-0.624415 1.312329,-0.984247 1.89441,-1.386413 1.047747,-0.719664 1.608662,-1.291162 1.608662,-2.317742 0,-1.439329 -1.015997,-2.349493 -2.635242,-2.349493 -1.777994,0 -2.846907,0.994831 -2.95274,2.772825 l 1.735661,0.09525 v -0.04233 c 0,-0.86783 0.296332,-1.312329 0.86783,-1.312329 0.455082,0 0.751415,0.306916 0.751415,0.761998 0,0.370415 -0.201083,0.603248 -0.529165,0.910164 -0.275166,0.264582 -0.783165,0.666747 -1.407579,1.291162 -1.037164,1.047747 -1.587495,1.936744 -1.587495,3.01624 v 0.148167 z"
           id="path65" />
        <path
           style="color:#000000;font-style:normal;font-variant:normal;font-weight:normal;font-stretch:normal;font-size:medium;line-height:1.25;font-family:'Stymie Extra';-inkscape-font-specification:'Stymie Extra';font-variant-ligatures:normal;font-variant-position:normal;font-variant-caps:normal;font-variant-numeric:normal;font-variant-alternates:normal;font-variant-east-asian:normal;font-feature-settings:normal;font-variation-settings:normal;text-indent:0;text-align:start;text-decoration:none;text-decoration-line:none;text-decoration-style:solid;text-decoration-color:#000000;letter-spacing:normal;word-spacing:normal;text-transform:none;writing-mode:lr-tb;direction:ltr;text-orientation:mixed;dominant-baseline:auto;baseline-shift:baseline;text-anchor:start;white-space:normal;shape-padding:0;shape-margin:0;inline-size:0;clip-rule:nonzero;display:inline;overflow:visible;visibility:visible;isolation:auto;mix-blend-mode:normal;color-interpolation:sRGB;color-interpolation-filters:linearRGB;solid-color:#000000;solid-opacity:1;vector-effect:none;fill-opacity:1;fill-rule:nonzero;stroke:none;stroke-width:0.264583;stroke-linecap:butt;stroke-linejoin:miter;stroke-miterlimit:4;stroke-dasharray:none;stroke-dashoffset:0;stroke-opacity:1;color-rendering:auto;image-rendering:auto;shape-rendering:auto;text-rendering:auto;enable-background:accumulate;stop-color:#000000;stop-opacity:1"
           d="m 54.335938,82.429688 c -0.913671,0 -1.662147,0.258196 -2.19336,0.755859 -0.531213,0.497663 -0.836226,1.228671 -0.890625,2.142578 l -0.0078,0.130859 2.007812,0.111328 v -0.18164 c 0,-0.418858 0.07384,-0.72194 0.197266,-0.908203 0.123427,-0.186263 0.287611,-0.271485 0.539062,-0.271485 0.197801,0 0.346747,0.06339 0.451172,0.169922 0.104425,0.106534 0.167969,0.260158 0.167969,0.458985 0,0.161269 -0.04069,0.282351 -0.121094,0.408203 -0.0804,0.125852 -0.205487,0.253029 -0.367187,0.404297 v 0.002 c -0.264807,0.254621 -0.780458,0.663268 -1.410157,1.292968 -1.047024,1.057709 -1.626953,1.984918 -1.626953,3.109376 v 0.28125 h 6.021485 v -0.132813 -2.746094 h -1.660157 v 1.027344 h -1.574218 c 0.515037,-0.445075 1.071985,-0.803678 1.568359,-1.146484 0.528263,-0.362847 0.942337,-0.69116 1.228516,-1.072266 0.286178,-0.381106 0.4375,-0.816131 0.4375,-1.353516 0,-0.750792 -0.268574,-1.381171 -0.753907,-1.814453 -0.485332,-0.433282 -1.179262,-0.667968 -2.013671,-0.667968 z m 0,0.265624 c 0.784835,0 1.410413,0.219931 1.83789,0.601563 0.427478,0.381632 0.666016,0.926697 0.666016,1.615234 0,0.489196 -0.12855,0.852155 -0.384766,1.19336 -0.256216,0.341204 -0.646532,0.658808 -1.166016,1.015625 -0.571105,0.394582 -1.29442,0.758938 -1.916015,1.402344 l -0.214844,0.224609 h 2.548828 v -1.027344 h 1.132813 v 2.349609 h -5.492188 v -0.01562 c 0,-1.034535 0.521525,-1.88409 1.548828,-2.921876 0.619129,-0.619129 1.118772,-1.014519 1.404297,-1.289062 0.166382,-0.155648 0.306047,-0.295181 0.408203,-0.455078 0.102157,-0.159897 0.16211,-0.341635 0.16211,-0.550781 0,-0.256256 -0.08467,-0.483837 -0.242188,-0.644532 -0.157512,-0.160694 -0.383344,-0.25 -0.640625,-0.25 -0.320047,0 -0.592152,0.137681 -0.759765,0.390625 -0.152415,0.230008 -0.2064,0.566617 -0.21875,0.958985 l -1.439454,-0.08008 c 0.07657,-0.780486 0.311359,-1.419388 0.753907,-1.833985 0.4742,-0.444251 1.147395,-0.683594 2.011719,-0.683594 z"
           id="path67" />
      </g>
      <g
         id="g69"
         style="opacity:1">
        <path
           style="color:#000000;font-style:normal;font-variant:normal;font-weight:normal;font-stretch:normal;font-size:medium;line-height:1.25;font-family:'Stymie Extra';-inkscape-font-specification:'Stymie Extra';font-variant-ligatures:normal;font-variant-position:normal;font-variant-caps:normal;font-variant-numeric:normal;font-variant-alternates:normal;font-variant-east-asian:normal;font-feature-settings:normal;font-variation-settings:normal;text-indent:0;text-align:start;text-decoration:none;text-decoration-line:none;text-decoration-style:solid;text-decoration-color:#000000;letter-spacing:normal;word-spacing:normal;text-transform:none;writing-mode:lr-tb;direction:ltr;text-orientation:mixed;dominant-baseline:auto;baseline-shift:baseline;text-anchor:start;white-space:normal;shape-padding:0;shape-margin:0;inline-size:0;clip-rule:nonzero;display:inline;overflow:visible;visibility:visible;isolation:auto;mix-blend-mode:normal;color-interpolation:sRGB;color-interpolation-filters:linearRGB;solid-color:#000000;solid-opacity:1;vector-effect:none;fill:#000000;fill-opacity:1;fill-rule:nonzero;stroke:none;stroke-width:0.264583;stroke-linecap:butt;stroke-linejoin:miter;stroke-miterlimit:4;stroke-dasharray:none;stroke-dashoffset:0;stroke-opacity:1;color-rendering:auto;image-rendering:auto;shape-rendering:auto;text-rendering:auto;enable-background:accumulate;stop-color:#000000;stop-opacity:1"
           d="m 60.390521,85.864308 c 0.05292,-1.164163 0.370415,-1.735661 1.005413,-1.735661 0.338666,0 0.613832,0.232832 0.846664,0.709081 l 1.545162,-0.719665 c -0.359832,-0.984246 -1.217079,-1.566328 -2.338909,-1.566328 -1.957911,0 -3.439572,1.682745 -3.439572,4.095737 0,2.201326 1.312329,3.682988 3.164406,3.682988 1.830911,0 2.942157,-1.047746 2.942157,-2.741074 0,-1.365246 -0.952497,-2.317743 -2.254242,-2.317743 -0.550332,0 -1.037164,0.190499 -1.471079,0.592665 z m -0.01058,1.98966 c 0,-0.603248 0.296332,-0.984247 0.761997,-0.984247 0.433915,0 0.740831,0.359832 0.740831,0.963081 0,0.603248 -0.296332,0.973663 -0.751414,0.973663 -0.476249,0 -0.751414,-0.349249 -0.751414,-0.952497 z"
           id="path71" />
        <path
           style="color:#000000;font-style:normal;font-variant:normal;font-weight:normal;font-stretch:normal;font-size:medium;line-height:1.25;font-family:'Stymie Extra';-inkscape-font-specification:'Stymie Extra';font-variant-ligatures:normal;font-variant-position:normal;font-variant-caps:normal;font-variant-numeric:normal;font-variant-alternates:normal;font-variant-east-asian:normal;font-feature-settings:normal;font-variation-settings:normal;text-indent:0;text-align:start;text-decoration:none;text-decoration-line:none;text-decoration-style:solid;text-decoration-color:#000000;letter-spacing:normal;word-spacing:normal;text-transform:none;writing-mode:lr-tb;direction:ltr;text-orientation:mixed;dominant-baseline:auto;baseline-shift:baseline;text-anchor:start;white-space:normal;shape-padding:0;shape-margin:0;inline-size:0;clip-rule:nonzero;display:inline;overflow:visible;visibility:visible;isolation:auto;mix-blend-mode:normal;color-interpolation:sRGB;color-interpolation-filters:linearRGB;solid-color:#000000;solid-opacity:1;vector-effect:none;fill-opacity:1;fill-rule:nonzero;stroke:none;stroke-width:0.264583;stroke-linecap:butt;stroke-linejoin:miter;stroke-miterlimit:4;stroke-dasharray:none;stroke-dashoffset:0;stroke-opacity:1;color-rendering:auto;image-rendering:auto;shape-rendering:auto;text-rendering:auto;enable-background:accumulate;stop-color:#000000;stop-opacity:1"
           d="m 61.449219,82.419922 c -2.033711,0 -3.572266,1.761369 -3.572266,4.228516 0,1.126951 0.336316,2.078667 0.919922,2.751953 0.583606,0.673285 1.415637,1.0625 2.376953,1.0625 0.94069,0 1.712488,-0.270884 2.248047,-0.771485 0.535559,-0.5006 0.826172,-1.225959 0.826172,-2.101562 0,-1.426777 -1.020441,-2.451172 -2.386719,-2.451172 -0.481317,0 -0.896432,0.233075 -1.292969,0.521484 0.04026,-0.430778 0.09819,-0.821485 0.220703,-1.035156 0.147482,-0.257209 0.329611,-0.363281 0.607422,-0.363281 0.139017,0 0.256681,0.04355 0.376954,0.144531 0.120272,0.100984 0.238488,0.262942 0.349609,0.490234 l 0.05859,0.115235 1.771484,-0.824219 -0.04102,-0.115234 c -0.377322,-1.032087 -1.295299,-1.652344 -2.46289,-1.652344 z m 0,0.263672 c 1.026919,0 1.772742,0.521814 2.138672,1.380859 l -1.302735,0.609375 c -0.10389,-0.186642 -0.210889,-0.36079 -0.341797,-0.470703 -0.160184,-0.134495 -0.347225,-0.207031 -0.546875,-0.207031 -0.357186,0 -0.652692,0.178466 -0.835937,0.498047 -0.183245,0.31958 -0.275774,0.770191 -0.302735,1.363281 l -0.01367,0.324219 0.236328,-0.220703 c 0.413009,-0.38279 0.861056,-0.556641 1.380859,-0.556641 1.237213,0 2.123047,0.881832 2.123047,2.185547 0,0.817725 -0.266349,1.461598 -0.744141,1.908203 -0.477792,0.446604 -1.176185,0.699219 -2.066406,0.699219 -0.890761,0 -1.642157,-0.350874 -2.177734,-0.96875 -0.535578,-0.617877 -0.855469,-1.505704 -0.855469,-2.580078 0,-2.358838 1.426482,-3.964844 3.308594,-3.964844 z m -0.306641,4.054687 c -0.268912,0 -0.504792,0.115987 -0.660156,0.316407 -0.155364,0.200419 -0.234375,0.475542 -0.234375,0.798828 0,0.321738 0.07166,0.591213 0.224609,0.785156 0.152947,0.193943 0.387741,0.300781 0.658203,0.300781 0.263434,0 0.496203,-0.114704 0.650391,-0.3125 0.154188,-0.197796 0.234375,-0.471636 0.234375,-0.794922 0,-0.32406 -0.08217,-0.594418 -0.236328,-0.789062 -0.154158,-0.194644 -0.383193,-0.304688 -0.636719,-0.304688 z m 0,0.263672 c 0.180389,0 0.321909,0.06899 0.429688,0.205078 0.107778,0.136085 0.177734,0.345811 0.177734,0.625 0,0.279963 -0.06803,0.49459 -0.175781,0.632813 -0.107749,0.138223 -0.251712,0.208984 -0.44336,0.208984 -0.205786,0 -0.34552,-0.06772 -0.449218,-0.199219 -0.103698,-0.131493 -0.169922,-0.339584 -0.169922,-0.621093 0,-0.279963 0.07047,-0.495828 0.179687,-0.636719 0.109218,-0.140892 0.254419,-0.214844 0.451172,-0.214844 z"
           id="path73" />
      </g>
      <g
         id="g75"
         style="opacity:1">
        <path
           style="color:#000000;font-style:normal;font-variant:normal;font-weight:normal;font-stretch:normal;font-size:medium;line-height:1.25;font-family:'Stymie Extra';-inkscape-font-specification:'Stymie Extra';font-variant-ligatures:normal;font-variant-position:normal;font-variant-caps:normal;font-variant-numeric:normal;font-variant-alternates:normal;font-variant-east-asian:normal;font-feature-settings:normal;font-variation-settings:normal;text-indent:0;text-align:start;text-decoration:none;text-decoration-line:none;text-decoration-style:solid;text-decoration-color:#000000;letter-spacing:normal;word-spacing:normal;text-transform:none;writing-mode:lr-tb;direction:ltr;text-orientation:mixed;dominant-baseline:auto;baseline-shift:baseline;text-anchor:start;white-space:normal;shape-padding:0;shape-margin:0;inline-size:0;clip-rule:nonzero;display:inline;overflow:visible;visibility:visible;isolation:auto;mix-blend-mode:normal;color-interpolation:sRGB;color-interpolation-filters:linearRGB;solid-color:#000000;solid-opacity:1;vector-effect:none;fill:#000000;fill-opacity:1;fill-rule:nonzero;stroke:none;stroke-width:0.264583;stroke-linecap:butt;stroke-linejoin:miter;stroke-miterlimit:4;stroke-dasharray:none;stroke-dashoffset:0;stroke-opacity:1;color-rendering:auto;image-rendering:auto;shape-rendering:auto;text-rendering:auto;enable-background:accumulate;stop-color:#000000;stop-opacity:1"
           d="m 67.819997,88.891132 c -0.624415,0 -0.751415,-0.793748 -0.751415,-2.444743 0,-1.650994 0.127,-2.434159 0.751415,-2.434159 0.624414,0 0.761997,0.783165 0.761997,2.434159 0,1.650995 -0.137583,2.444743 -0.761997,2.444743 z m -3.079741,-2.444743 c 0,2.497659 1.142997,3.884071 3.079741,3.884071 1.936743,0 3.090323,-1.386412 3.090323,-3.884071 0,-2.497658 -1.15358,-3.884071 -3.090323,-3.884071 -1.936744,0 -3.079741,1.386413 -3.079741,3.884071 z"
           id="path77" />
        <path
           style="color:#000000;font-style:normal;font-variant:normal;font-weight:normal;font-stretch:normal;font-size:medium;line-height:1.25;font-family:'Stymie Extra';-inkscape-font-specification:'Stymie Extra';font-variant-ligatures:normal;font-variant-position:normal;font-variant-caps:normal;font-variant-numeric:normal;font-variant-alternates:normal;font-variant-east-asian:normal;font-feature-settings:normal;font-variation-settings:normal;text-indent:0;text-align:start;text-decoration:none;text-decoration-line:none;text-decoration-style:solid;text-decoration-color:#000000;letter-spacing:normal;word-spacing:normal;text-transform:none;writing-mode:lr-tb;direction:ltr;text-orientation:mixed;dominant-baseline:auto;baseline-shift:baseline;text-anchor:start;white-space:normal;shape-padding:0;shape-margin:0;inline-size:0;clip-rule:nonzero;display:inline;overflow:visible;visibility:visible;isolation:auto;mix-blend-mode:normal;color-interpolation:sRGB;color-interpolation-filters:linearRGB;solid-color:#000000;solid-opacity:1;vector-effect:none;fill-opacity:1;fill-rule:nonzero;stroke:none;stroke-width:0.264583;stroke-linecap:butt;stroke-linejoin:miter;stroke-miterlimit:4;stroke-dasharray:none;stroke-dashoffset:0;stroke-opacity:1;color-rendering:auto;image-rendering:auto;shape-rendering:auto;text-rendering:auto;enable-background:accumulate;stop-color:#000000;stop-opacity:1"
           d="m 67.820312,82.429688 c -0.999938,0 -1.816204,0.364557 -2.36914,1.054687 -0.552936,0.69013 -0.84375,1.693882 -0.84375,2.962891 0,1.269009 0.290814,2.270807 0.84375,2.960937 0.552936,0.69013 1.369202,1.054688 2.36914,1.054688 0.999939,0 1.819377,-0.364662 2.375,-1.054688 0.555624,-0.690026 0.847657,-1.691741 0.847657,-2.960937 0,-1.269196 -0.292033,-2.272865 -0.847657,-2.962891 -0.555623,-0.690026 -1.375061,-1.054687 -2.375,-1.054687 z m 0,0.265624 c 0.936805,0 1.662617,0.327484 2.167969,0.955079 0.505353,0.627595 0.789063,1.568413 0.789063,2.796875 0,1.228462 -0.28371,2.167327 -0.789063,2.794922 -0.505352,0.627594 -1.231164,0.955078 -2.167969,0.955078 -0.936805,0 -1.661313,-0.327588 -2.164062,-0.955078 -0.502749,-0.627491 -0.783203,-1.566273 -0.783203,-2.794922 0,-1.228649 0.280454,-2.169385 0.783203,-2.796875 0.502749,-0.627491 1.227257,-0.955078 2.164062,-0.955079 z m 0,1.185547 c -0.183757,0 -0.351125,0.06268 -0.474609,0.185547 -0.123484,0.12287 -0.205159,0.295453 -0.263672,0.509766 -0.117026,0.428625 -0.146484,1.042205 -0.146484,1.871094 0,0.828889 0.02956,1.443938 0.146484,1.875 0.05846,0.215531 0.14036,0.387793 0.263672,0.511718 0.123312,0.123926 0.290478,0.189453 0.474609,0.189454 0.184132,-10e-7 0.350369,-0.06387 0.47461,-0.1875 0.124241,-0.123629 0.20769,-0.296122 0.267578,-0.511719 0.119776,-0.431194 0.152344,-1.047781 0.152344,-1.876953 0,-0.829172 -0.03246,-1.444289 -0.152344,-1.873047 -0.05994,-0.214379 -0.14317,-0.385243 -0.267578,-0.507813 -0.124409,-0.12257 -0.290852,-0.185547 -0.47461,-0.185547 z m 0,0.263672 c 0.12845,0 0.212058,0.03351 0.289063,0.109375 0.077,0.07587 0.146713,0.204792 0.199219,0.392578 0.105012,0.375574 0.140625,0.978959 0.140625,1.800782 0,0.821822 -0.03551,1.426258 -0.140625,1.804687 -0.05256,0.189215 -0.122046,0.319692 -0.199219,0.396485 -0.07717,0.07679 -0.160987,0.111328 -0.289063,0.111328 -0.128075,0 -0.210992,-0.03483 -0.287109,-0.111328 -0.07612,-0.0765 -0.143972,-0.205251 -0.195312,-0.394532 -0.102682,-0.37856 -0.136719,-0.984535 -0.136719,-1.80664 0,-0.822105 0.03414,-1.427029 0.136719,-1.802735 0.05129,-0.187852 0.119367,-0.315057 0.195312,-0.390625 0.07595,-0.07557 0.15866,-0.109375 0.287109,-0.109375 z"
           id="path79" />
      </g>
      <g
         id="g81"
         style="opacity:1">
        <path
           style="color:#000000;font-style:normal;font-variant:normal;font-weight:normal;font-stretch:normal;font-size:medium;line-height:1.25;font-family:'Stymie Extra';-inkscape-font-specification:'Stymie Extra';font-variant-ligatures:normal;font-variant-position:normal;font-variant-caps:normal;font-variant-numeric:normal;font-variant-alternates:normal;font-variant-east-asian:normal;font-feature-settings:normal;font-variation-settings:normal;text-indent:0;text-align:start;text-decoration:none;text-decoration-line:none;text-decoration-style:solid;text-decoration-color:#000000;letter-spacing:normal;word-spacing:normal;text-transform:none;writing-mode:lr-tb;direction:ltr;text-orientation:mixed;dominant-baseline:auto;baseline-shift:baseline;text-anchor:start;white-space:normal;shape-padding:0;shape-margin:0;inline-size:0;clip-rule:nonzero;display:inline;overflow:visible;visibility:visible;isolation:auto;mix-blend-mode:normal;color-interpolation:sRGB;color-interpolation-filters:linearRGB;solid-color:#000000;solid-opacity:1;vector-effect:none;fill:#000000;fill-opacity:1;fill-rule:nonzero;stroke:none;stroke-width:0.264583;stroke-linecap:butt;stroke-linejoin:miter;stroke-miterlimit:4;stroke-dasharray:none;stroke-dashoffset:0;stroke-opacity:1;color-rendering:auto;image-rendering:auto;shape-rendering:auto;text-rendering:auto;enable-background:accumulate;stop-color:#000000;stop-opacity:1"
           d="m 71.566486,90.203461 h 3.312573 c 2.08491,0 3.397239,-1.386413 3.397239,-3.831155 0,-2.465909 -1.206496,-3.788821 -3.397239,-3.788821 h -3.312573 v 1.629828 h 0.613831 v 4.317986 h -0.613831 z m 2.963324,-1.672162 v -4.317986 h 0.05292 c 1.015997,0 1.322913,0.613831 1.322913,2.063744 0,1.576911 -0.201083,2.254242 -1.269996,2.254242 z"
           id="path83" />
        <path
           style="color:#000000;font-style:normal;font-variant:normal;font-weight:normal;font-stretch:normal;font-size:medium;line-height:1.25;font-family:'Stymie Extra';-inkscape-font-specification:'Stymie Extra';font-variant-ligatures:normal;font-variant-position:normal;font-variant-caps:normal;font-variant-numeric:normal;font-variant-alternates:normal;font-variant-east-asian:normal;font-feature-settings:normal;font-variation-settings:normal;text-indent:0;text-align:start;text-decoration:none;text-decoration-line:none;text-decoration-style:solid;text-decoration-color:#000000;letter-spacing:normal;word-spacing:normal;text-transform:none;writing-mode:lr-tb;direction:ltr;text-orientation:mixed;dominant-baseline:auto;baseline-shift:baseline;text-anchor:start;white-space:normal;shape-padding:0;shape-margin:0;inline-size:0;clip-rule:nonzero;display:inline;overflow:visible;visibility:visible;isolation:auto;mix-blend-mode:normal;color-interpolation:sRGB;color-interpolation-filters:linearRGB;solid-color:#000000;solid-opacity:1;vector-effect:none;fill-opacity:1;fill-rule:nonzero;stroke:none;stroke-width:0.264583;stroke-linecap:butt;stroke-linejoin:miter;stroke-miterlimit:4;stroke-dasharray:none;stroke-dashoffset:0;stroke-opacity:1;color-rendering:auto;image-rendering:auto;shape-rendering:auto;text-rendering:auto;enable-background:accumulate;stop-color:#000000;stop-opacity:1"
           d="m 71.433594,82.451172 v 1.894531 h 0.615234 v 4.052735 h -0.615234 v 1.9375 h 0.132812 3.3125 c 1.071779,0 1.962645,-0.3611 2.578125,-1.042969 0.615481,-0.68187 0.951172,-1.67388 0.951172,-2.919922 0,-1.25453 -0.306564,-2.238008 -0.910156,-2.908203 -0.603592,-0.670195 -1.497141,-1.013672 -2.619141,-1.013672 z m 0.265625,0.263672 h 3.179687 c 1.068743,0 1.874533,0.319996 2.421875,0.927734 0.547342,0.607739 0.84375,1.51909 0.84375,2.730469 0,1.1987 -0.320901,2.119665 -0.882812,2.742187 -0.561912,0.622523 -1.369681,0.955078 -2.382813,0.955078 h -3.179687 v -1.40625 H 72.3125 v -4.583984 h -0.613281 z m 2.699219,1.365234 v 4.583984 h 0.130859 0.105469 c 0.562399,0 0.950361,-0.202971 1.154296,-0.609374 0.203936,-0.406404 0.248047,-0.983266 0.248047,-1.777344 0,-0.734291 -0.07138,-1.270859 -0.298828,-1.644532 -0.227453,-0.373672 -0.621609,-0.552734 -1.15625,-0.552734 z m 0.263671,0.302734 c 0.40697,0.02061 0.685154,0.116543 0.84961,0.386719 0.180004,0.295721 0.261719,0.792191 0.261719,1.507813 0,0.782832 -0.05687,1.331714 -0.220704,1.658203 -0.158962,0.316781 -0.413982,0.441306 -0.890625,0.449219 z"
           id="path85" />
      </g>
    </g>
  </g>
</svg>
